HIERARCHY
ROOT Hips
{
	OFFSET 0.00000 0.00000 0.00000
	CHANNELS 6 Xposition Yposition Zposition Zrotation Yrotation Xrotation 
	JOINT LHipJoint
	{
		OFFSET 0 0 0
		CHANNELS 3 Zrotation Yrotation Xrotation
		JOINT LeftUpLeg
		{
			OFFSET 1.17584 -1.63585 1.00361
			CHANNELS 3 Zrotation Yrotation Xrotation
			JOINT LeftLeg
			{
				OFFSET 2.23889 -6.15131 0.00000
				CHANNELS 3 Zrotation Yrotation Xrotation
				JOINT LeftFoot
				{
					OFFSET 2.65161 -7.28525 0.00000
					CHANNELS 3 Zrotation Yrotation Xrotation
					JOINT LeftToeBase
					{
						OFFSET 0.24898 -0.68407 1.57235
						CHANNELS 3 Zrotation Yrotation Xrotation
						End Site
						{
							OFFSET 0.00000 -0.00000 0.85838
						}
					}
				}
			}
		}
	}
	JOINT RHipJoint
	{
		OFFSET 0 0 0
		CHANNELS 3 Zrotation Yrotation Xrotation
		JOINT RightUpLeg
		{
			OFFSET -1.15592 -1.63585 1.00361
			CHANNELS 3 Zrotation Yrotation Xrotation
			JOINT RightLeg
			{
				OFFSET -2.34071 -6.43104 0.00000
				CHANNELS 3 Zrotation Yrotation Xrotation
				JOINT RightFoot
				{
					OFFSET -2.59113 -7.11908 0.00000
					CHANNELS 3 Zrotation Yrotation Xrotation
					JOINT RightToeBase
					{
						OFFSET -0.17867 -0.49089 1.70981
						CHANNELS 3 Zrotation Yrotation Xrotation
						End Site
						{
							OFFSET -0.00000 -0.00000 0.89861
						}
					}
				}
			}
		}
	}
	JOINT LowerBack
	{
		OFFSET 0 0 0
		CHANNELS 3 Zrotation Yrotation Xrotation
		JOINT Spine
		{
			OFFSET -0.02255 1.90764 -0.16605
			CHANNELS 3 Zrotation Yrotation Xrotation
			JOINT Spine1
			{
				OFFSET -0.00365 1.92150 -0.04898
				CHANNELS 3 Zrotation Yrotation Xrotation
				JOINT Neck
				{
					OFFSET 0 0 0
					CHANNELS 3 Zrotation Yrotation Xrotation
					JOINT Neck1
					{
						OFFSET 0.00372 1.59170 0.08694
						CHANNELS 3 Zrotation Yrotation Xrotation
						JOINT Head
						{
							OFFSET 0.12558 1.58643 -0.08078
							CHANNELS 3 Zrotation Yrotation Xrotation
							End Site
							{
								OFFSET 0.04211 1.60835 -0.03803
							}
						}
					}
				}
				JOINT LeftShoulder
				{
					OFFSET 0 0 0
					CHANNELS 3 Zrotation Yrotation Xrotation
					JOINT LeftArm
					{
						OFFSET 3.69324 0.96316 0.19077
						CHANNELS 3 Zrotation Yrotation Xrotation
						JOINT LeftForeArm
						{
							OFFSET 4.87796 -0.00000 -0.00000
							CHANNELS 3 Zrotation Yrotation Xrotation
							JOINT LeftHand
							{
								OFFSET 3.23169 -0.00000 0.00000
								CHANNELS 3 Zrotation Yrotation Xrotation
								JOINT LeftFingerBase
								{
									OFFSET 0 0 0
									CHANNELS 3 Zrotation Yrotation Xrotation
									JOINT LeftHandIndex1
									{
										OFFSET 0.73132 -0.00000 0.00000
										CHANNELS 3 Zrotation Yrotation Xrotation
										End Site
										{
											OFFSET 0.58961 -0.00000 0.00000
										}
									}
								}
								JOINT LThumb
								{
									OFFSET 0 0 0
									CHANNELS 3 Zrotation Yrotation Xrotation
									End Site
									{
										OFFSET 0.59861 -0.00000 0.59861
									}
								}
							}
						}
					}
				}
				JOINT RightShoulder
				{
					OFFSET 0 0 0
					CHANNELS 3 Zrotation Yrotation Xrotation
					JOINT RightArm
					{
						OFFSET -3.66103 0.75145 0.08281
						CHANNELS 3 Zrotation Yrotation Xrotation
						JOINT RightForeArm
						{
							OFFSET -4.91430 -0.00000 0.00000
							CHANNELS 3 Zrotation Yrotation Xrotation
							JOINT RightHand
							{
								OFFSET -3.29093 -0.00000 0.00000
								CHANNELS 3 Zrotation Yrotation Xrotation
								JOINT RightFingerBase
								{
									OFFSET 0 0 0
									CHANNELS 3 Zrotation Yrotation Xrotation
									JOINT RightHandIndex1
									{
										OFFSET -0.54512 -0.00000 0.00000
										CHANNELS 3 Zrotation Yrotation Xrotation
										End Site
										{
											OFFSET -0.43949 -0.00000 0.00000
										}
									}
								}
								JOINT RThumb
								{
									OFFSET 0 0 0
									CHANNELS 3 Zrotation Yrotation Xrotation
									End Site
									{
										OFFSET -0.44620 -0.00000 0.44620
									}
								}
							}
						}
					}
				}
			}
		}
	}
}
MOTION
Frames: 10
Frame Time: 0.028169
0.00 0.00 0.00 0 0 0 0 0 0 -21 0 0 0 0 0 0 0 0 0 0 0 0 0 0 21 0 0 0 0 0 0 0 0 0 0 0 0 0 0 0 0 0 0 0 0 0 0 -16 0 0 21 0 0 11 0 0 0 -8 0 0 0 0 0 0 0 0 0 0 0 0 0 0 0 0 0 0 0 0 8 0 0 0 0 0 0 0 0 0 0 0 0 0 0 0 0 0
0.00 0.00 0.00 164.5380 -97.4314 -163.2520 0.0000 0.0000 0.0000 -8.2691 -3.8179 -29.6779 7.9856 16.1086 52.5107 1.3636 -4.0331 -21.1204 2.0669 -9.0041 -25.8081 0.0000 0.0000 0.0000 9.5625 -1.0787 -17.9115 -5.7312 -14.1627 43.8930 -0.6553 -8.6755 -20.8196 -1.3064 7.2406 -20.4301 2.1115 0.6647 -1.1618 -2.6283 0.8598 4.0417 -3.8693 0.5423 4.9070 -0.1936 -0.2960 -0.6963 4.4904 -0.1972 -9.4668 1.4926 -0.2967 -2.8966 0.0000 -0.0000 0.0000 -77.5966 -8.5419 59.9447 26.7619 -37.9512 -9.3523 -0.0000 0.0000 -2.4913 -1.0066 -20.0919 0.3458 -7.1250 0.0000 -0.0000 -18.7236 10.6640 15.8276 0.0000 -0.0000 0.0000 83.9317 -12.1431 35.3902 -21.0883 31.9313 -6.0966 0.0000 -0.0000 -4.8085 -11.2926 -22.1944 4.3137 7.1250 -0.0000 -0.0000 17.8106 -51.6915 -3.0147
0.00 0.00 0.00 70.5930 -91.3831 -70.1439 0.0000 0.0000 0.0000 -11.0816 1.8176 -33.4699 9.5944 17.1754 58.1240 1.5430 -3.9449 -22.5376 2.2422 -9.3534 -26.9071 0.0000 0.0000 0.0000 2.4179 -1.2916 -29.0213 -8.6635 -16.5862 54.9190 -0.1064 1.4053 -5.8289 -1.1859 6.9108 -19.4514 0.4032 1.5408 1.1826 -2.5555 2.0381 4.1002 -2.8210 1.0409 3.6663 -0.7468 0.2054 -0.0725 5.5291 0.5642 -10.6035 1.9416 0.0241 -3.4419 -0.0000 0.0000 0.0000 -81.0766 -8.7847 63.7126 28.2343 -39.3311 -10.2719 -0.0000 -0.0000 0.6925 -3.1230 -17.5106 0.9405 -7.1250 0.0000 -0.0000 -20.2329 13.1652 16.1565 -0.0000 0.0000 0.0000 82.7328 0.0800 27.0207 -13.2745 21.6881 -2.5538 0.0000 0.0000 0.4750 -11.4056 -24.3073 4.7470 7.1250 -0.0000 -0.0000 18.7656 -53.7256 -4.1391
0.00 0.00 0.00 186.2120 -163.0880 -174.5780 0.0000 0.0000 0.0000 -2.4918 -7.6784 -1.9496 4.4146 12.6926 38.2283 -0.2561 9.5346 -7.0660 1.9064 -8.6683 -24.7632 0.0000 0.0000 0.0000 8.1182 12.9306 -35.8053 -6.0673 -14.4932 45.2510 -0.1530 -2.3666 -8.6553 -0.4140 4.1302 -11.4431 -1.8122 -3.3449 3.1763 -0.5654 -4.5035 2.1409 0.5483 -2.2683 0.5138 -7.0934 -16.8893 1.7266 11.7089 -22.1193 -12.4864 4.6517 -11.2882 -1.9058 -0.0000 0.0000 0.0000 -85.1890 -8.9176 36.1355 9.7255 -16.3090 -1.3969 -0.0000 -0.0000 6.1294 39.1795 -6.7137 -5.4426 -7.1250 0.0000 -0.0000 8.9855 21.3865 -5.1526 -0.0000 0.0000 0.0000 85.9002 4.4984 28.8765 -9.3990 15.7941 -1.3066 0.0000 0.0000 11.3732 -22.3084 -26.6714 10.4354 7.1250 -0.0000 -0.0000 8.7612 -58.2653 -2.8573
0.00 0.00 0.00 187.9990 -163.5080 -168.7860 0.0000 0.0000 0.0000 -9.9417 -2.8913 -9.9098 3.4076 11.3273 33.3919 -0.0238 -2.8330 1.8152 3.8849 -12.0056 -35.7519 0.0000 0.0000 0.0000 4.2576 8.4727 -37.5341 -7.8665 -16.0202 52.0804 -0.1367 1.6222 -6.6066 -0.0291 -1.1010 3.0267 -4.8826 -3.1525 0.8773 -0.4331 -4.1959 1.8487 2.2422 -2.1670 1.7298 -6.9925 -17.6856 0.8114 13.3440 -23.0941 -11.4785 4.8479 -11.8321 -1.1789 -0.0000 -0.0000 0.0000 -74.0219 13.9281 41.9926 9.5826 -16.0841 -1.3570 -0.0000 0.0000 -0.1732 13.9834 -13.7215 -3.3804 -7.1250 0.0000 -0.0000 -9.1873 15.9743 6.3878 -0.0000 -0.0000 0.0000 77.4407 -13.9410 28.2265 -9.8250 16.4653 -1.4249 0.0000 0.0000 11.1472 -8.4964 -24.5479 3.5514 7.1250 -0.0000 -0.0000 21.7256 -53.4270 -4.6758
0.00 0.00 0.00 186.2740 -164.4560 -167.0250 0.0000 0.0000 0.0000 -11.0851 -2.4326 -14.5589 4.4185 12.6974 38.2461 0.4145 -8.4133 -12.0647 1.7662 -8.3611 -23.8162 0.0000 0.0000 0.0000 8.0353 6.5071 -37.0193 -12.6425 -18.6492 68.0113 -0.2557 3.7361 -8.9961 -0.0002 -0.0994 0.2731 -4.4302 -2.7216 0.3162 -0.1531 -3.5924 1.9765 2.2553 -1.8707 2.1194 -6.9182 -18.0381 0.7064 14.2774 -23.4647 -12.4463 5.1071 -12.0765 -1.3016 0.0000 0.0000 0.0000 -70.0059 21.1706 42.5152 12.0591 -19.8932 -2.1223 -0.0000 0.0000 -1.0793 23.9256 -21.0806 -9.0669 -7.1250 0.0000 -0.0000 -2.9786 7.1396 2.5889 0.0000 0.0000 0.0000 77.6659 -20.0858 27.5818 -11.3564 18.8325 -1.8894 0.0000 0.0000 6.9022 -4.2785 -23.6098 1.7163 7.1250 -0.0000 -0.0000 25.1892 -51.8426 -4.4803
0.00 0.00 0.00 188.1230 -165.6510 -166.7180 0.0000 0.0000 0.0000 -14.4178 4.5517 -24.5080 6.5904 14.9770 47.3075 2.5080 -14.5821 -28.8125 3.4500 -11.3902 -33.6073 0.0000 0.0000 0.0000 8.3330 5.9459 -35.0934 -16.3735 -19.6817 79.3424 -0.1217 8.0103 -7.8642 -0.0188 0.8843 -2.4304 -7.0194 -2.2317 0.9145 -1.4668 -2.9401 2.2299 2.3771 -1.5816 2.0696 -6.8339 -18.4627 2.0045 17.1312 -23.7142 -15.4789 6.1540 -12.4539 -1.9998 0.0000 0.0000 0.0000 -64.6738 23.2162 44.6808 13.0800 -21.4043 -2.4824 -0.0000 -0.0000 3.8585 37.1587 -23.4506 -16.7841 -7.1250 0.0000 -0.0000 4.8345 1.5094 -4.7224 0.0000 0.0000 0.0000 82.5950 -22.6142 20.2621 -11.7009 19.3546 -2.0021 0.0000 0.0000 7.3378 -5.4815 -22.3020 2.0856 7.1250 -0.0000 -0.0000 23.3503 -50.8492 -3.5307
0.00 0.00 0.00 190.6590 -167.3050 -167.0070 0.0000 0.0000 0.0000 -17.7364 4.9934 -38.2974 11.2309 18.0462 63.5291 4.1503 -22.4168 -38.0218 2.5161 -9.8671 -28.5474 0.0000 0.0000 0.0000 13.8999 1.9996 -28.2919 -16.6889 -19.7351 80.2778 -1.1373 1.0174 -19.8497 -0.9461 6.1948 -17.3508 -10.0742 -2.0630 2.4806 -2.8709 -2.8885 2.3314 2.6756 -1.5701 1.3871 -10.5508 -16.5471 3.1457 19.0541 -21.2832 -15.2586 7.3426 -11.2063 -1.7184 0.0000 0.0000 0.0000 -65.8393 16.1112 30.9349 13.8962 -22.5862 -2.7881 -0.0000 -0.0000 15.4545 52.7876 -32.5286 -35.3024 -7.1250 0.0000 -0.0000 11.0143 -15.8062 -13.8135 0.0000 0.0000 0.0000 91.3596 -18.4237 13.0290 -12.2201 20.1340 -2.1775 0.0000 0.0000 6.1205 -24.2788 -21.7050 9.4708 7.1250 -0.0000 -0.0000 4.7163 -53.5081 -0.9885
0.00 0.00 0.00 182.0500 -159.6670 -172.4800 0.0000 0.0000 0.0000 -15.7192 -9.1623 -26.6265 5.9796 14.4086 44.8999 1.5593 -12.3892 -22.7166 1.2963 -7.2136 -20.3496 0.0000 0.0000 0.0000 4.1585 18.2867 -31.1144 -9.3608 -17.0344 57.3296 -0.3545 -0.5759 -11.4693 -1.2834 7.1789 -20.2466 -3.7375 -3.0495 3.8211 1.1678 -4.1782 2.8834 3.3924 -2.1677 1.1858 -7.9377 -16.1353 4.0558 15.4023 -20.7905 -16.9456 6.3111 -10.9092 -3.1828 0.0000 0.0000 0.0000 -82.0320 -12.8035 39.5678 9.7612 -16.3652 -1.4069 -0.0000 -0.0000 24.3444 25.0343 -21.2759 -9.6185 -7.1250 0.0000 -0.0000 -2.2972 6.7386 2.0134 0.0000 0.0000 0.0000 84.1580 0.0643 12.5796 -8.8137 14.8630 -1.1519 0.0000 0.0000 16.5673 -10.1590 -27.6139 4.7479 7.1250 -0.0000 -0.0000 21.9876 -56.5818 -6.4596
0.00 0.00 0.00 182.0020 -172.0760 -168.9860 0.0000 0.0000 0.0000 -15.2897 -7.3575 -30.1175 5.2852 13.6980 42.0409 0.8878 -15.3827 -18.6710 1.4202 -7.5364 -21.3147 0.0000 0.0000 0.0000 15.4498 16.4832 -33.5176 -7.9142 -16.0558 52.2529 -0.0920 12.3018 -9.8269 -1.3455 7.3437 -20.7377 -2.0940 -5.2749 2.0035 2.0365 -7.0678 1.4251 3.3098 -3.5692 0.8579 -8.9889 -17.8241 2.6095 14.8845 -23.2109 -14.8790 5.8585 -11.9632 -2.0278 0.0000 -0.0000 0.0000 -77.9650 -7.1095 28.6959 10.4324 -17.4131 -1.6019 -0.0000 -0.0000 15.6583 18.3830 -11.6847 -3.8505 -7.1250 0.0000 -0.0000 -6.1378 17.7278 4.0005 0.0000 -0.0000 0.0000 80.0710 -16.4992 34.2261 -11.6475 19.2739 -1.9844 0.0000 0.0000 11.4645 -0.6281 -27.0138 0.2853 7.1250 -0.0000 -0.0000 30.7901 -54.1991 -7.5032
